{"accessors" : [{"bufferView" : 0, "byteOffset" : 0, "componentType" : 5123, "count" : 50688, "type" : "SCALAR", "max" : [8449], "min" : [0]}, {"bufferView" : 1, "byteOffset" : 0, "componentType" : 5126, "count" : 8450, "type" : "VEC3", "max" : [3194.813232421875, 3450.41943359375, 2111.12353515625], "min" : [-2954.555908203125, 2436.439208984375, -2179.87060546875], "name" : "POSITION"}, {"bufferView" : 1, "byteOffset" : 12, "componentType" : 5126, "count" : 8450, "type" : "VEC2", "max" : [1, 1], "min" : [-0, 0], "name" : "TEXCOORD_0"}, {"bufferView" : 1, "byteOffset" : 20, "componentType" : 5126, "count" : 8450, "type" : "VEC3", "max" : [0.9389024376869202, 1.0000016689300537, 0.8611905574798584], "min" : [-0.8098483681678772, -0.9998002648353577, -0.8364189267158508], "name" : "NORMAL"}], "asset" : {"generator" : "Aspose.3D 24.2.0", "version" : "2.0"}, "buffers" : [{"uri" : "buffer.bin", "byteLength" : 371784}], "bufferViews" : [{"buffer" : 0, "byteOffset" : 0, "byteLength" : 101376, "target" : 34963}, {"buffer" : 0, "byteOffset" : 101380, "byteLength" : 270400, "byteStride" : 32, "target" : 34962}], "meshes" : [{"primitives" : [{"attributes" : {"POSITION" : 1, "TEXCOORD_0" : 2, "NORMAL" : 3}, "indices" : 0, "mode" : 4}], "name" : ""}], "nodes" : [{"mesh" : 0, "name" : "EXPORT_GOOGLE_SAT_WM.001"}], "scene" : 0, "scenes" : [{"nodes" : [0]}]}